<?xml version="1.0" encoding="utf-8"?>
<!-- Generator: Adobe Illustrator 19.2.1, SVG Export Plug-In . SVG Version: 6.00 Build 0)  -->
<svg version="1.1" id="Layer_1" xmlns="http://www.w3.org/2000/svg" xmlns:xlink="http://www.w3.org/1999/xlink" x="0px" y="0px"
	 viewBox="0 0 449 470" style="enable-background:new 0 0 449 470;" xml:space="preserve">
<style type="text/css">
	.st0{fill:#EE5549;}
	.st1{fill:#CFCFCE;}
	.st2{fill:#1E7CBE;}
	.st3{fill:#333333;}
	.st4{opacity:0.3;fill:#2ABDD4;}
</style>
<g>
	<path class="st0" d="M427.8,182.9l20.3-60.8L396.8,105l17.1-51.3l-60.8-20.3L336,84.7l-36.2-12.1l17.1-51.3L256.1,1l-17.1,51.3
		l-51.3-17.1L167.4,96l51.3,17.1l-12.1,36.2l-51.3-17.1L135,193l51.3,17.1l-17.1,51.3l60.8,20.3l17.1-51.3l36.2,12.1l-17.1,51.3
		l60.8,20.3l17.1-51.3l51.3,17.1l20.3-60.8L364.4,202l12.1-36.2L427.8,182.9z M303.6,181.7l-36.2-12.1l12.1-36.2l36.2,12.1
		L303.6,181.7z"/>
	<g>
		<path class="st1" d="M162.4,439.1c0-8.2,6.7-14.9,14.9-14.9c8.2,0,14.9,6.7,14.9,14.9c0,8.2-6.7,14.9-14.9,14.9
			C169,454,162.4,447.4,162.4,439.1z M364.8,367.8h-5.6v-32.2h16.5L364.8,367.8z M411.8,229.1l-14.2,41.8h-38.4v-41.8H411.8z
			 M143.3,229h37.6v41.8h-29.4L143.3,229z M161.4,320.7l-6.9-34.9h26.4v34.9H161.4z M180.9,367.8h-10.2l-6.4-32.2h16.6V367.8z
			 M262.6,367.8h-66.9v-32.2h66.9V367.8z M344.3,335.5v32.2h-66.9v-32.2H344.3z M277.5,270.8V229h66.9v41.8H277.5L277.5,270.8z
			 M262.6,285.7v34.9h-66.9v-34.9H262.6z M195.7,270.8V229h66.9v41.8H195.7z M344.3,320.7h-66.9v-34.9h66.9V320.7z M380.7,320.7
			h-21.5v-34.9h33.4L380.7,320.7z M325.8,439.1c0-8.2,6.7-14.9,14.9-14.9c8.2,0,14.9,6.7,14.9,14.9c0,8.2-6.7,14.9-14.9,14.9
			C332.5,454,325.8,447.4,325.8,439.1z M125.2,150.3H82.7v14.9h30.4l51.2,247.3c-9.9,4.8-16.8,15-16.8,26.7
			c0,16.4,13.3,29.7,29.7,29.7c13.8,0,25.4-9.5,28.7-22.3h106c3.3,12.8,14.9,22.3,28.7,22.3c16.4,0,29.7-13.4,29.7-29.7
			c0-16.4-13.3-29.7-29.7-29.7c-13.8,0-25.4,9.5-28.7,22.3H206c-3.2-12.3-14-21.5-27.1-22.2l-5.6-26.9h202.1l57.1-168.4h-294
			L125.2,150.3L125.2,150.3z"/>
	</g>
	<g>
		<circle class="st2" cx="177.4" cy="439.5" r="14.5"/>
		<path class="st3" d="M177.4,425c8,0,14.5,6.5,14.5,14.5c0,8-6.5,14.5-14.5,14.5c-8,0-14.5-6.5-14.5-14.5
			C162.9,431.5,169.4,425,177.4,425 M177.4,410c-16.3,0-29.5,13.2-29.5,29.5c0,16.3,13.2,29.5,29.5,29.5s29.5-13.2,29.5-29.5
			C206.9,423.2,193.6,410,177.4,410L177.4,410z"/>
	</g>
	<g>
		<circle class="st2" cx="341.3" cy="439.5" r="14.5"/>
		<path class="st3" d="M341.3,425c8,0,14.5,6.5,14.5,14.5c0,8-6.5,14.5-14.5,14.5c-8,0-14.5-6.5-14.5-14.5
			C326.8,431.5,333.3,425,341.3,425 M341.3,410c-16.3,0-29.5,13.2-29.5,29.5c0,16.3,13.2,29.5,29.5,29.5c16.3,0,29.5-13.2,29.5-29.5
			C370.8,423.2,357.6,410,341.3,410L341.3,410z"/>
	</g>
	<path class="st3" d="M97.9,148.5H66.8c-1.1,0-2,0.9-2,2v13.6c0,1.1,0.9,2,2,2h31.1c1.1,0,2-0.9,2-2v-13.6
		C99.9,149.4,99,148.5,97.9,148.5z"/>
	<path class="st4" d="M99.9,255h-54c-2.8,0-5-2.2-5-5s2.2-5,5-5h54c2.8,0,5,2.2,5,5S102.7,255,99.9,255z"/>
	<path class="st4" d="M109.9,285H5.9c-2.8,0-5-2.2-5-5s2.2-5,5-5h104c2.8,0,5,2.2,5,5S112.7,285,109.9,285z"/>
</g>
</svg>
