<svg id="Layer_1" data-name="Layer 1" xmlns="http://www.w3.org/2000/svg" xmlns:xlink="http://www.w3.org/1999/xlink" viewBox="0 0 32.19 31.62"><defs><style>.cls-1{fill:none;}.cls-2,.cls-4{fill:#194081;}.cls-3{clip-path:url(#clip-path);}.cls-4{fill-rule:evenodd;}</style><clipPath id="clip-path"><rect class="cls-1" x="3.06" y="-6.51" width="26.5" height="26.5" transform="translate(0 13.47) rotate(-44.89)"/></clipPath></defs><title>call_email</title><path class="cls-2" d="M20.68,29.85A10.54,10.54,0,0,1,15.53,31a8.62,8.62,0,0,1-8.77-9c0-6,4.14-11.12,10.57-11.12a8,8,0,0,1,8.43,8.37c0,4.34-2.43,6.89-5.15,6.89a2.14,2.14,0,0,1-2.14-2.55h-.12a4.55,4.55,0,0,1-4.08,2.55c-1.68,0-3.13-1.36-3.13-3.65A6.84,6.84,0,0,1,18,15.61a7.58,7.58,0,0,1,3.1.61l-1,5.24c-.43,2.2-.09,3.22.87,3.24,1.48,0,3.13-1.94,3.13-5.3,0-4.2-2.52-7.21-7-7.21-4.72,0-8.69,3.74-8.69,9.61,0,4.83,3.16,7.82,7.44,7.82a9,9,0,0,0,4.37-1ZM19.09,17.14a5,5,0,0,0-1.45-.2c-2.55,0-4.6,2.4-4.6,5.21,0,1.28.64,2.2,1.91,2.2,1.68,0,3.21-2.14,3.53-3.94Zm0,0"/><g class="cls-3"><path class="cls-4" d="M.13,5.28V8.73a1.72,1.72,0,0,0,1.72,1.73l6-.84c1-.19,1.73-.77,1.72-1.72V5.79a42.38,42.38,0,0,1,6-.45,48.59,48.59,0,0,1,6.9.57v2c0,1,.74,1.54,1.72,1.73l6,.88A1.6,1.6,0,0,0,32,8.84V5.39c0-1.9-1.54-2.84-3.45-3.46A52,52,0,0,0,16.11.22,57.68,57.68,0,0,0,3.58,1.84C1.72,2.7.13,3.38.13,5.28Zm0,0"/></g></svg>