<svg xmlns="http://www.w3.org/2000/svg" viewBox="0 0 32.19 31.62"><defs><style>.cls-1{fill:#194081;}.cls-2,.cls-3,.cls-5{fill:#fff;}.cls-2{fill-rule:evenodd;}.cls-3{font-size:11px;font-family:SFCompactDisplay-Semibold, SF Compact Display;font-weight:700;}.cls-4{letter-spacing:0.02em;}.cls-6{fill:none;stroke:#fff;stroke-linecap:round;stroke-miterlimit:10;stroke-width:0.72px;}</style></defs><title>call_domain</title><g id="Layer_2" data-name="Layer 2"><circle class="cls-1" cx="16.25" cy="15.76" r="15.6"/><path class="cls-2" d="M9.73,9.54l0,1.44a.72.72,0,0,0,.71.73L13,11.4c.41-.07.73-.31.73-.71V9.81a17.72,17.72,0,0,1,2.52-.16,20.32,20.32,0,0,1,2.88.28v.85c0,.4.3.65.71.73l2.52.4A.67.67,0,0,0,23,11.2l0-1.44c0-.8-.63-1.2-1.42-1.46a21.74,21.74,0,0,0-5.2-.78,24.12,24.12,0,0,0-5.25.61c-.78.35-1.45.62-1.46,1.42Zm0,0"/><text class="cls-3" transform="translate(3.58 21.33)"><tspan class="cls-4">ww</tspan><tspan x="17.08" y="0">w</tspan></text><polygon class="cls-5" points="22.59 27.09 21.87 28.52 21.15 24.21 24.75 25.65 23.31 26.37 22.59 27.09"/><line class="cls-6" x1="22.81" y1="26.41" x2="25.01" y2="28.88"/></g></svg>