<svg id="Layer_1" data-name="Layer 1" xmlns="http://www.w3.org/2000/svg" xmlns:xlink="http://www.w3.org/1999/xlink" viewBox="0 0 57 57"><defs><style>.cls-1{fill:none;}.cls-2{clip-path:url(#clip-path);}.cls-3{fill:#fff;}</style><clipPath id="clip-path"><rect class="cls-1" x="2.65" y="5.37" width="53" height="47.25"/></clipPath></defs><title>secure_text</title><g class="cls-2"><path class="cls-3" d="M48.43,45.46a6.87,6.87,0,0,0,4.23,6.06v1c-4.74-.1-9.09-.83-13.21-4.89a23.14,23.14,0,0,1-3,.18,22.24,22.24,0,0,1-11.66-3.17,28.2,28.2,0,0,0,17.69-6,21.57,21.57,0,0,0,5.63-6.77,18.32,18.32,0,0,0,2.13-8.58c0-.48,0-1-.06-1.44a13.89,13.89,0,0,1,5.39,10.66c0,4.81-2.77,9.09-7.09,11.9A6.7,6.7,0,0,0,48.43,45.46Zm-23.66-40h0c12.19,0,22.07,8,22.07,17.87S37,41.15,24.77,41.15a25.91,25.91,0,0,1-3.44-.22c-4.74,4.73-10.22,5.56-15.69,5.69V45.46C8.6,44,11,41.4,11,38.4a8.73,8.73,0,0,0-.09-1.23c-5-3.29-8.19-8.29-8.19-13.89C2.7,13.42,12.59,5.41,24.77,5.41Z"/></g></svg>