<svg id="Layer_1" data-name="Layer 1" xmlns="http://www.w3.org/2000/svg" viewBox="0 0 57 57"><defs><style>.cls-1{fill:#fff;}</style></defs><title>voice_calls</title><g id="_4" data-name="4"><path class="cls-1" d="M3.53,17.69A115.6,115.6,0,0,0,19,37.85a104.73,104.73,0,0,0,20.1,15.31c3.58,1.84,7.1,2.7,9.81,0l4.91-4.89c1.36-1.35,1.65-3.76,0-4.89L44,36c-1.66-1.12-3.55-1.35-4.91,0h0l-2.9,2.89a98.16,98.16,0,0,1-10.59-9,84.54,84.54,0,0,1-7.91-9.24l3-3c1.36-1.35,1.13-3.24,0-4.89L13.35,3A3.48,3.48,0,0,0,8.44,3h0L3.53,7.91C.82,10.61,2.13,13.84,3.53,17.69Z"/></g></svg>