<?xml version="1.0" encoding="utf-8"?>
<!-- Generator: Adobe Illustrator 19.2.1, SVG Export Plug-In . SVG Version: 6.00 Build 0)  -->
<svg version="1.1" id="Layer_1" xmlns="http://www.w3.org/2000/svg" xmlns:xlink="http://www.w3.org/1999/xlink" x="0px" y="0px"
	 viewBox="0 0 425 410" style="enable-background:new 0 0 425 410;" xml:space="preserve">
<style type="text/css">
	
		.st0{fill:none;stroke:#DCDBDB;stroke-width:3;stroke-linecap:round;stroke-linejoin:round;stroke-miterlimit:10;stroke-dasharray:0,10;}
	.st1{fill:#FFFFFF;}
	.st2{opacity:0.25;fill:#2ABDD4;}
	.st3{opacity:0.25;fill:#72C164;}
	.st4{opacity:0.25;fill:#F47B3F;}
	.st5{fill:#7E55A3;}
</style>
<g>
	<circle class="st0" cx="272.2" cy="150.1" r="125.3"/>
	<path class="st1" d="M328.8,320.3c0-42-42.4-76-94.7-76c-8.3,0-16.4,0.9-24,2.5c3.6-8.5,5.5-17.6,5.5-27.1
		c0-47.1-47.6-85.3-106.3-85.3C50.6,134.3,3,172.5,3,219.6c0,26.2,14.7,49.7,37.9,65.3l-8.1,32.8l34.8-19.7
		c12.8,4.4,26.9,6.8,41.7,6.8c11.7,0,22.9-1.5,33.4-4.3c-2.1,6.3-3.2,12.8-3.2,19.6c0,42,42.4,76,94.7,76c13.2,0,25.8-2.2,37.2-6.1
		l31,17.5l-7.2-29.3C315.7,364.5,328.8,343.6,328.8,320.3z"/>
	<path class="st2" d="M295.1,378.5c20.6-13.9,33.8-34.8,33.8-58.2c0-42-42.4-76-94.7-76c-52.3,0-94.7,34-94.7,76s42.4,76,94.7,76
		c13.2,0,25.8-2.2,37.2-6.1l31,17.5L295.1,378.5z"/>
	<path class="st1" d="M399.2,22c13.9,9.4,22.8,23.5,22.8,39.3c0,28.4-28.6,51.4-64,51.4c-35.3,0-64-23-64-51.4s28.6-51.4,64-51.4
		c8.9,0,17.4,1.5,25.1,4.1l20.9-11.8L399.2,22z"/>
	<g>
		<path class="st1" d="M219.8,337.6v-10.9c-3-0.3-5.5-1.5-7.4-3.7c-2-2.1-2.9-4.6-2.9-7.5c0-2.1,0.5-4,1.5-5.8
			c1-1.8,2.4-3.1,4.2-4.1c1.7-1,3.6-1.5,5.6-1.5c2.1,0,4.1,0.5,5.9,1.6c1.8,1.1,3.2,2.6,4.2,4.5c1,1.9,1.5,4.1,1.5,6.4
			c0,2.1-0.2,4.1-0.7,6c-0.5,2-1.2,3.8-2.1,5.6c-0.8,1.7-2,3.2-3.4,4.8c-1.1,1.1-2,1.9-2.7,2.4C222.6,336,221.4,336.8,219.8,337.6z
			 M247.4,337.6v-10.9c-3.1-0.6-5.6-1.9-7.5-3.9c-1.8-2-2.8-4.5-2.8-7.3c0-2,0.5-3.9,1.5-5.7c1-1.8,2.3-3.2,4-4.2
			c1.7-1,3.6-1.5,5.6-1.5c2.2,0,4.3,0.5,6,1.5c1.8,1.1,3.2,2.6,4.2,4.4c1,1.9,1.5,4.1,1.5,6.5c0,6.7-2.1,12.2-6.3,16.6
			c-0.8,0.9-1.6,1.6-2.5,2.2C250.4,336,249.1,336.7,247.4,337.6z"/>
	</g>
	<path class="st3" d="M399.2,22c13.9,9.4,22.8,23.5,22.8,39.3c0,28.4-28.6,51.4-64,51.4c-35.3,0-64-23-64-51.4s28.6-51.4,64-51.4
		c8.9,0,17.4,1.5,25.1,4.1l20.9-11.8L399.2,22z"/>
	<path class="st4" d="M40.9,285C17.7,269.3,3,245.9,3,219.6c0-47.1,47.6-85.3,106.3-85.3c58.7,0,106.3,38.2,106.3,85.3
		S168,305,109.3,305c-14.8,0-28.9-2.4-41.7-6.8l-34.8,19.7L40.9,285z"/>
	<g>
		<path class="st1" d="M126.5,199.5v12.9c3.6,0.4,6.5,1.8,8.8,4.4c2.3,2.5,3.5,5.5,3.5,8.9c0,2.5-0.6,4.8-1.8,6.8
			c-1.2,2.1-2.8,3.7-4.9,4.9c-2.1,1.2-4.3,1.8-6.7,1.8c-2.5,0-4.8-0.6-7-1.9c-2.1-1.3-3.8-3-5-5.4c-1.2-2.3-1.8-4.8-1.8-7.6
			c0-2.4,0.3-4.8,0.8-7.2c0.6-2.3,1.4-4.5,2.5-6.6c1-2,2.4-3.8,4-5.7c1.3-1.3,2.4-2.3,3.2-2.9C123.1,201.3,124.5,200.5,126.5,199.5z
			 M93.7,199.5v12.9c3.7,0.7,6.7,2.2,8.9,4.6c2.2,2.4,3.3,5.3,3.3,8.7c0,2.4-0.6,4.6-1.8,6.7c-1.2,2.1-2.8,3.8-4.8,4.9
			c-2.1,1.2-4.3,1.8-6.6,1.8c-2.7,0-5-0.6-7.2-1.8c-2.1-1.3-3.8-3-4.9-5.2c-1.2-2.3-1.8-4.8-1.8-7.7c0-7.9,2.5-14.5,7.5-19.8
			c0.9-1,1.9-1.9,3-2.7C90.2,201.4,91.6,200.5,93.7,199.5z"/>
	</g>
	<g>
		<path class="st1" d="M373.7,43.8v10.6c2.9,0.3,5.3,1.5,7.2,3.6c1.9,2.1,2.9,4.5,2.9,7.3c0,2-0.5,3.9-1.4,5.6c-1,1.7-2.3,3-4,4
			c-1.7,1-3.5,1.4-5.4,1.4c-2.1,0-4-0.5-5.7-1.5c-1.8-1-3.1-2.5-4.1-4.4c-1-1.9-1.4-3.9-1.4-6.2c0-2,0.2-3.9,0.7-5.8
			c0.5-1.9,1.2-3.7,2-5.4c0.8-1.6,1.9-3.1,3.3-4.6c1.1-1.1,1.9-1.9,2.6-2.4C371,45.3,372.1,44.6,373.7,43.8z M346.9,43.8v10.6
			c3.1,0.5,5.5,1.8,7.2,3.8c1.8,2,2.7,4.3,2.7,7.1c0,2-0.5,3.8-1.4,5.5c-1,1.7-2.3,3.1-3.9,4c-1.7,1-3.5,1.5-5.4,1.5
			c-2.2,0-4.1-0.5-5.8-1.5c-1.8-1.1-3.1-2.5-4-4.3c-1-1.8-1.4-3.9-1.4-6.3c0-6.5,2-11.9,6.1-16.1c0.8-0.8,1.6-1.6,2.4-2.2
			C344.1,45.3,345.3,44.6,346.9,43.8z"/>
	</g>
	<path class="st5" d="M258.4,177.2l1.8-3.3c-1.7-0.9-2.4-1.7-3.7-3.5c-5.8-8-4.2-19,3.6-24.7c3.8-2.8,8.4-3.9,13-3.1
		c4.6,0.7,8.7,3.2,11.4,7c6,8.2,4.7,19.4-2.8,24.8l1.9,2.7c1.4-1.1,2.7-2.3,3.9-3.7l8.9,12.7c12.3-12.1,14-32.3,3.1-47.3
		c-5.6-7.8-14-12.9-23.4-14.5c-9.5-1.5-19,0.8-26.8,6.4c-16,11.6-19.5,34.2-7.7,50.5c1.1,1.5,2.2,2.9,3.7,4.4l8.9-12.7
		C255.3,174.5,256.8,176,258.4,177.2z"/>
</g>
</svg>
