<?xml version="1.0" encoding="utf-8"?>
<!-- Generator: Adobe Illustrator 19.2.1, SVG Export Plug-In . SVG Version: 6.00 Build 0)  -->
<svg version="1.1" id="Layer_1" xmlns="http://www.w3.org/2000/svg" xmlns:xlink="http://www.w3.org/1999/xlink" x="0px" y="0px"
	 viewBox="0 0 83 83" style="enable-background:new 0 0 83 83;" xml:space="preserve">
<style type="text/css">
	.st0{fill:#1E7CBE;}
	.st1{fill:#2ABDD4;}
	.st2{fill:#EE5549;}
	.st3{fill:#8256A3;}
</style>
<g>
	<path class="st0" d="M79.8,46.6l-3.4,0.8c-3.4,0.8-5.9,2.8-7.1,5.6c-1.2,2.8-0.8,6,1.1,9l1.8,3c-2.1,2.7-4.5,5.1-7.2,7.2l-3-1.8
		c-1.8-1.1-3.8-1.7-5.7-1.7c-4.3,0-7.8,3-8.9,7.8l-0.8,3.4c-3.4,0.4-6.8,0.4-10.2,0l-0.8-3.4c-1.1-4.7-4.6-7.8-8.9-7.8
		c-1.9,0-3.8,0.6-5.7,1.7l-3,1.8c-2.7-2.1-5.1-4.5-7.2-7.2l1.8-3c1.8-3,2.2-6.2,1.1-9c-1.2-2.8-3.7-4.8-7.1-5.6l-3.4-0.8
		c-0.2-1.7-0.3-3.4-0.3-5.1c0-1.7,0.1-3.4,0.3-5.1l3.4-0.8c3.4-0.8,5.9-2.8,7.1-5.6c1.2-2.8,0.8-6-1.1-9l-1.8-3
		c2.1-2.7,4.5-5.1,7.2-7.2l3,1.8c1.8,1.1,3.8,1.7,5.7,1.7c4.3,0,7.8-3,8.9-7.8l0.8-3.4c3.4-0.4,6.8-0.4,10.2,0l0.8,3.4
		c1.1,4.7,4.6,7.8,8.9,7.8c1.9,0,3.8-0.6,5.7-1.7l3-1.8c2.7,2.1,5.1,4.5,7.2,7.2l-1.8,3c-1.8,3-2.2,6.2-1.1,9
		c1.2,2.8,3.7,4.8,7.1,5.6l3.4,0.8c0.2,1.7,0.3,3.4,0.3,5.1C80.2,43.2,80,44.9,79.8,46.6z M82.5,35c-0.1-0.6-0.5-1-1.1-1.2l-4.3-1
		c-2.5-0.6-4.3-2-5.1-3.9c-0.8-1.9-0.5-4.2,0.9-6.4l2.3-3.8c0.3-0.5,0.3-1.1-0.1-1.6c-2.6-3.5-5.6-6.6-9.2-9.2
		c-0.5-0.3-1.1-0.4-1.6-0.1l-3.8,2.3c-1.4,0.8-2.8,1.3-4.2,1.3c-3,0-5.3-2.1-6.2-5.6l-1-4.3C49,1,48.5,0.6,48,0.5
		c-4.3-0.7-8.7-0.7-13,0c-0.6,0.1-1,0.5-1.2,1.1l-1,4.3c-0.8,3.4-3.2,5.6-6.2,5.6c-1.4,0-2.8-0.4-4.2-1.3l-3.8-2.3
		c-0.5-0.3-1.1-0.3-1.6,0.1c-3.5,2.6-6.6,5.6-9.2,9.2c-0.3,0.5-0.4,1.1-0.1,1.6l2.3,3.8c1.4,2.2,1.7,4.5,0.8,6.4
		c-0.8,1.9-2.6,3.3-5.1,3.9l-4.3,1C1,34,0.6,34.5,0.5,35C0.2,37.2,0,39.3,0,41.5c0,2.2,0.2,4.3,0.5,6.5c0.1,0.6,0.5,1,1.1,1.2l4.3,1
		c2.5,0.6,4.3,2,5.1,3.9c0.8,1.9,0.5,4.2-0.8,6.4l-2.3,3.8c-0.3,0.5-0.3,1.1,0.1,1.6c2.6,3.5,5.6,6.6,9.2,9.2
		c0.5,0.3,1.1,0.4,1.6,0.1l3.8-2.3c1.4-0.8,2.8-1.3,4.2-1.3c3,0,5.3,2.1,6.2,5.6l1,4.3c0.1,0.6,0.6,1,1.2,1.1
		c2.1,0.3,4.3,0.5,6.5,0.5c2.2,0,4.3-0.2,6.5-0.5c0.6-0.1,1-0.5,1.2-1.1l1-4.3c0.8-3.4,3.2-5.6,6.2-5.6c1.4,0,2.8,0.4,4.2,1.3
		l3.8,2.3c0.5,0.3,1.1,0.3,1.6-0.1c3.5-2.6,6.6-5.6,9.2-9.2c0.3-0.5,0.4-1.1,0.1-1.6l-2.3-3.8c-1.4-2.2-1.7-4.5-0.9-6.4
		c0.8-1.9,2.6-3.3,5.1-3.9l4.3-1c0.6-0.1,1-0.6,1.1-1.2c0.3-2.1,0.5-4.3,0.5-6.5C83,39.3,82.8,37.2,82.5,35z"/>
	<path class="st1" d="M41.5,18.2c-0.8,0-1.4,0.6-1.4,1.4c0,0.8,0.6,1.4,1.4,1.4c11.3,0,20.4,9.2,20.4,20.4c0,0.8,0.6,1.4,1.4,1.4
		c0.8,0,1.4-0.6,1.4-1.4C64.8,28.7,54.3,18.2,41.5,18.2z"/>
	<path class="st2" d="M56,56c-3.9,3.9-9,6-14.5,6C36,62,30.9,59.8,27,56c-8-8-8-20.9,0-28.9c0.6-0.6,0.6-1.4,0-2
		c-0.6-0.6-1.5-0.6-2,0C16,34.1,16,48.9,25,58c4.4,4.4,10.2,6.8,16.5,6.8c6.2,0,12.1-2.4,16.5-6.8c0.6-0.6,0.6-1.4,0-2
		C57.4,55.4,56.5,55.4,56,56z"/>
	<path class="st3" d="M41.5,32c5.2,0,9.5,4.3,9.5,9.5c0,5.3-4.3,9.5-9.5,9.5c-5.3,0-9.5-4.3-9.5-9.5C32,36.3,36.3,32,41.5,32z
		 M41.5,53.9c6.8,0,12.3-5.5,12.3-12.4c0-6.8-5.5-12.3-12.3-12.3c-6.8,0-12.4,5.5-12.4,12.3C29.2,48.3,34.7,53.9,41.5,53.9z"/>
</g>
</svg>
