<?xml version="1.0" encoding="utf-8"?>
<!-- Generator: Adobe Illustrator 19.2.1, SVG Export Plug-In . SVG Version: 6.00 Build 0)  -->
<svg version="1.1" id="Layer_1" xmlns="http://www.w3.org/2000/svg" xmlns:xlink="http://www.w3.org/1999/xlink" x="0px" y="0px"
	 viewBox="0 0 418 530" style="enable-background:new 0 0 418 530;" xml:space="preserve">
<style type="text/css">
	
		.st0{fill:none;stroke:#DCDBDB;stroke-width:3;stroke-linecap:round;stroke-linejoin:round;stroke-miterlimit:10;stroke-dasharray:0,10;}
	.st1{fill:#F4F4F4;stroke:#DCDBDB;stroke-miterlimit:10;}
	.st2{fill:#FFFFFF;}
	.st3{opacity:0.1;}
	.st4{fill:#333333;}
	.st5{fill:#E9DCEC;}
	.st6{fill:none;stroke:#8256A3;stroke-miterlimit:10;}
	.st7{fill:none;stroke:#8256A3;stroke-miterlimit:10;stroke-dasharray:18.3486,3.0581;}
	.st8{fill:none;stroke:#8256A3;stroke-miterlimit:10;stroke-dasharray:17.901,2.9835;}
	.st9{fill:#E9DCEC;stroke:#8256A3;stroke-miterlimit:10;stroke-dasharray:18,3;}
	.st10{fill:none;stroke:#333333;stroke-miterlimit:10;stroke-dasharray:18,3;}
	.st11{fill:#8256A3;}
	.st12{fill:none;stroke:#72C164;stroke-miterlimit:10;}
	.st13{fill:none;stroke:#72C164;stroke-miterlimit:10;stroke-dasharray:18.3486,3.0581;}
	.st14{fill:none;stroke:#72C164;stroke-miterlimit:10;stroke-dasharray:18.9238,3.154;}
	.st15{opacity:0.3;fill:none;stroke:#72C164;stroke-width:10;stroke-linecap:round;stroke-linejoin:round;stroke-miterlimit:10;}
	.st16{fill:none;stroke:#2ABDD4;stroke-miterlimit:10;}
	.st17{fill:none;stroke:#2ABDD4;stroke-miterlimit:10;stroke-dasharray:18.3486,3.0581;}
	.st18{fill:none;stroke:#2ABDD4;stroke-miterlimit:10;stroke-dasharray:18.126,3.021;}
	.st19{fill:none;stroke:#333333;stroke-miterlimit:10;}
	.st20{fill:none;stroke:#333333;stroke-miterlimit:10;stroke-dasharray:18.3486,3.0581;}
	.st21{fill:none;stroke:#333333;stroke-miterlimit:10;stroke-dasharray:18.126,3.021;}
	.st22{opacity:0.5;fill:#2ABDD4;}
	.st23{fill:none;}
	.st24{opacity:0.5;fill:#FFFFFF;}
	.st25{font-family:'ProximaNovaBold';}
	.st26{font-size:20px;}
	.st27{fill:#010101;}
	.st28{fill:#DCDBDB;}
</style>
<g>
</g>
<g>
	<circle class="st0" cx="209" cy="264.3" r="205"/>
	<path class="st1" d="M307,527.1H114.4c-16.5,0-30-13.5-30-30V32.9c0-16.5,13.5-30,30-30H307c16.5,0,30,13.5,30,30v464.2
		C337,513.6,323.5,527.1,307,527.1z"/>
	<path class="st2" d="M322.7,465.5h-224c-1.6,0-3-1.4-3-3V64.9c0-1.7,1.4-3,3-3h224c1.6,0,3,1.3,3,3v397.6
		C325.7,464.1,324.4,465.5,322.7,465.5z"/>
	<g class="st3">
		<circle class="st4" cx="210.7" cy="494" r="18.1"/>
		<path class="st4" d="M229,34.1h-36.7c-1.2,0-2.1-1-2.1-2.1v-0.4c0-1.2,1-2.1,2.1-2.1H229c1.2,0,2.1,1,2.1,2.1v0.4
			C231.2,33.1,230.2,34.1,229,34.1z"/>
		<path class="st4" d="M170.1,35.8h-0.7c-2.1,0-3.7-1.7-3.7-3.7v-0.7c0-2.1,1.7-3.7,3.7-3.7h0.7c2.1,0,3.7,1.7,3.7,3.7v0.7
			C173.8,34.2,172.1,35.8,170.1,35.8z"/>
		<path class="st4" d="M210.9,16.2h-0.4c-1.2,0-2.1-1-2.1-2.1v-0.4c0-1.2,1-2.1,2.1-2.1h0.4c1.2,0,2.1,1,2.1,2.1v0.4
			C213,15.3,212.1,16.2,210.9,16.2z"/>
	</g>
	<g>
		<g>
			<defs>
				<rect id="SVGID_1_" x="96.6" y="209.9" width="227.9" height="117.3"/>
			</defs>
			<clipPath id="SVGID_2_">
				<use xlink:href="#SVGID_1_"  style="overflow:visible;"/>
			</clipPath>
		</g>
	</g>
	<g>
		<rect x="103.8" y="142.8" class="st5" width="213.7" height="125.4"/>
		<g>
			<polyline class="st6" points="317.6,259.2 317.6,268.2 308.6,268.2 			"/>
			<line class="st7" x1="305.5" y1="268.2" x2="114.4" y2="268.2"/>
			<polyline class="st6" points="112.8,268.2 103.8,268.2 103.8,259.2 			"/>
			<line class="st8" x1="103.8" y1="256.2" x2="103.8" y2="153.3"/>
			<polyline class="st6" points="103.8,151.8 103.8,142.8 112.8,142.8 			"/>
			<line class="st7" x1="115.9" y1="142.8" x2="307" y2="142.8"/>
			<polyline class="st6" points="308.6,142.8 317.6,142.8 317.6,151.8 			"/>
			<line class="st8" x1="317.6" y1="154.8" x2="317.6" y2="257.7"/>
		</g>
	</g>
	<circle class="st9" cx="209.9" cy="204.8" r="22.4"/>
	<circle class="st10" cx="209.9" cy="102.8" r="22.4"/>
	<g>
		<path class="st11" d="M204.2,214.2c-0.4,0.2-0.7,0-0.7-0.4v-17.2c0-0.4,0.3-0.6,0.7-0.4l15.5,8.6c0.4,0.2,0.4,0.5,0,0.7
			L204.2,214.2z"/>
	</g>
	<g>
		<g>
			<g>
				<polyline class="st12" points="317.6,448.8 317.6,457.8 308.6,457.8 				"/>
				<line class="st13" x1="305.5" y1="457.8" x2="114.4" y2="457.8"/>
				<polyline class="st12" points="112.8,457.8 103.8,457.8 103.8,448.8 				"/>
				<line class="st14" x1="103.8" y1="445.6" x2="103.8" y2="358.9"/>
				<polyline class="st12" points="103.8,357.3 103.8,348.3 112.8,348.3 				"/>
				<line class="st13" x1="115.9" y1="348.3" x2="307" y2="348.3"/>
				<polyline class="st12" points="308.6,348.3 317.6,348.3 317.6,357.3 				"/>
				<line class="st14" x1="317.6" y1="360.4" x2="317.6" y2="447.2"/>
			</g>
		</g>
		<line class="st15" x1="269.2" y1="421.7" x2="152.4" y2="421.7"/>
		<line class="st15" x1="288.8" y1="387.6" x2="132.8" y2="387.6"/>
	</g>
	<g>
		<g>
			<polyline class="st16" points="317.6,331.1 317.6,340.1 308.6,340.1 			"/>
			<line class="st17" x1="305.5" y1="340.1" x2="114.4" y2="340.1"/>
			<polyline class="st16" points="112.8,340.1 103.8,340.1 103.8,331.1 			"/>
			<line class="st18" x1="103.8" y1="328.1" x2="103.8" y2="287.3"/>
			<polyline class="st16" points="103.8,285.8 103.8,276.8 112.8,276.8 			"/>
			<line class="st17" x1="115.9" y1="276.8" x2="307" y2="276.8"/>
			<polyline class="st16" points="308.6,276.8 317.6,276.8 317.6,285.8 			"/>
			<line class="st18" x1="317.6" y1="288.8" x2="317.6" y2="329.6"/>
		</g>
	</g>
	<g>
		<g>
			<polyline class="st19" points="317.6,125.1 317.6,134.1 308.6,134.1 			"/>
			<line class="st20" x1="305.5" y1="134.1" x2="114.4" y2="134.1"/>
			<polyline class="st19" points="112.8,134.1 103.8,134.1 103.8,125.1 			"/>
			<line class="st21" x1="103.8" y1="122.1" x2="103.8" y2="81.3"/>
			<polyline class="st19" points="103.8,79.8 103.8,70.8 112.8,70.8 			"/>
			<line class="st20" x1="115.9" y1="70.8" x2="307" y2="70.8"/>
			<polyline class="st19" points="308.6,70.8 317.6,70.8 317.6,79.8 			"/>
			<line class="st21" x1="317.6" y1="82.8" x2="317.6" y2="123.6"/>
		</g>
	</g>
	<path class="st22" d="M300.8,325.7H120.6c-3.3,0-6-2.7-6-6v-23.3c0-3.3,2.7-6,6-6h180.3c3.3,0,6,2.7,6,6v23.3
		C306.8,323,304.1,325.7,300.8,325.7z"/>
	<rect x="119.7" y="301.5" class="st23" width="182.1" height="21.7"/>
	<text transform="matrix(1 0 0 1 152.8154 314.8407)" class="st24 st25 st26">ENTER NOW</text>
	<path class="st27" d="M215.3,111.8l-8.5-9h4.5c0,0,2.6-1,2.6-4s-2.9-4-2.9-4h-11.3v-3h13.3c0,0,4.5,2,4.5,6.6s-4.1,6-4.1,6l6.5,7.4
		H215.3z"/>
	<g>
		<polygon class="st28" points="379.4,241.4 375.8,245 380.6,249.8 352.3,278.2 357.3,283.1 385.6,254.7 390.5,259.5 397.6,252.4 
			386.5,241.4 		"/>
		<polygon class="st28" points="355.5,259.5 362.6,258.8 366.1,262.2 371,257.3 367.7,254 368.3,246.6 364.7,243.1 358.6,242.3 
			356.8,244.1 362,249.3 358,253.2 352.9,248 351,249.9 351.9,255.9 		"/>
		<polygon class="st28" points="392.5,279.6 394.3,277.8 393.4,271.8 389.9,268.2 382.7,268.9 378.2,264.3 373.2,269.3 377.6,273.6 
			377,281 380.6,284.6 386.7,285.4 388.5,283.5 383.3,278.3 387.3,274.5 		"/>
	</g>
</g>
</svg>
