<?xml version="1.0" encoding="utf-8"?>
<!-- Generator: Adobe Illustrator 19.2.1, SVG Export Plug-In . SVG Version: 6.00 Build 0)  -->
<svg version="1.1" id="Layer_1" xmlns="http://www.w3.org/2000/svg" xmlns:xlink="http://www.w3.org/1999/xlink" x="0px" y="0px"
	 viewBox="0 0 543 362" style="enable-background:new 0 0 543 362;" xml:space="preserve">
<style type="text/css">
	
		.st0{fill:none;stroke:#DCDBDB;stroke-width:3;stroke-linecap:round;stroke-linejoin:round;stroke-miterlimit:10;stroke-dasharray:0,10;}
	.st1{fill:#EE5549;}
	.st2{fill:#FFFFFF;}
	.st3{fill:#DCDBDB;}
	.st4{fill:#010101;}
	.st5{fill:#F7E3D8;}
	.st6{fill:none;}
	.st7{fill:#1E7CBE;}
	.st8{font-family:'ProximaNova-Regular';}
	.st9{font-size:24px;}
	.st10{font-family:'Geometria-Light';}
	.st11{fill:#D0ECF2;}
</style>
<g>
	<circle class="st0" cx="272.3" cy="180" r="153.5"/>
	<g>
		<circle class="st1" cx="272.3" cy="29.7" r="27"/>
		<path class="st2" d="M285,27.9V22h-5v-5h-5.9v5h-3.5v-5h-5.9v5h-5v5.9h5v3.5h-5v5.9h5v5h5.9v-5h3.5v5h5.9v-5h5v-5.9h-5v-3.5H285z
			 M274.1,31.5h-3.5v-3.5h3.5V31.5z"/>
	</g>
	<g>
		<path class="st3" d="M265.4,189.6h-10.3c-4.9,0-8.9-4-8.9-8.9v-2.8c0-4.9,4-8.9,8.9-8.9h11.7c4.9,0,8.9,4,8.9,8.9v4.2
			c0,1.2,0.9,2.1,2.1,2.1s2.1-0.9,2.1-2.1v-4.2c0-7.2-5.9-13.1-13.1-13.1h-11.7c-7.2,0-13.1,5.9-13.1,13.1v2.8
			c0,7.2,5.9,13.1,13.1,13.1h10.3c1.2,0,2.1-0.9,2.1-2.1C267.5,190.6,266.5,189.6,265.4,189.6z"/>
		<path class="st3" d="M289.5,164.8h-8.8c-1.2,0-2.1,0.9-2.1,2.1s0.9,2.1,2.1,2.1h8.8c4.9,0,8.9,4,8.9,8.9v2.8c0,4.9-4,8.9-8.9,8.9
			h-10.3c-4.9,0-8.9-4-8.9-8.9v-4.2c0-1.2-0.9-2.1-2.1-2.1c-1.2,0-2.1,0.9-2.1,2.1v4.2c0,7.2,5.9,13.1,13.1,13.1h10.3
			c7.2,0,13.1-5.9,13.1-13.1v-2.8C302.6,170.7,296.7,164.8,289.5,164.8z"/>
	</g>
	<g>
		<circle class="st4" cx="272.3" cy="332.3" r="27"/>
		<path class="st2" d="M278.8,345.5l-11-12h5.8c0,0,3.4-1.1,3.4-5c0-3.9-3.7-5-3.7-5h-13.4v-4H276c0,0,5.8,2,5.8,7.9
			c0,6-5.4,8.1-5.4,8.1l8.5,10H278.8z"/>
	</g>
	<path class="st5" d="M42.2,246C18,229.7,2.6,205.2,2.6,177.9c0-49.2,49.7-89,110.9-89c61.3,0,110.9,39.9,110.9,89
		s-49.7,89-110.9,89c-15.5,0-30.2-2.5-43.5-7.1l-36.3,20.5L42.2,246z"/>
	<rect x="21.8" y="140.5" class="st6" width="185" height="123"/>
	<text transform="matrix(1 0 0 1 114.337 156.4777)"><tspan x="0" y="0" class="st7 st8 st9"> </tspan><tspan x="-83.2" y="28.8" class="st1 st10 st9">#yourHashtag</tspan></text>
	<ellipse class="st11" cx="428.4" cy="176.5" rx="112" ry="89"/>
	<rect x="336.8" y="126.5" class="st6" width="185" height="123"/>
	<text transform="matrix(1 0 0 1 429.337 142.4777)"><tspan x="0" y="0" class="st4 st8 st9"> </tspan><tspan x="-25.4" y="28.8" class="st4 st10 st9">your </tspan><tspan x="-56.2" y="57.6" class="st4 st10 st9">RingPage</tspan></text>
</g>
</svg>
